<svg xmlns="http://www.w3.org/2000/svg" width="24" height="24" viewBox="0 0 48 48">
  <g>
    <path fill="#4285F4" d="M24 9.5c3.54 0 6.71 1.22 9.19 3.23l6.87-6.87C36.45 2.7 30.6 0 24 0 14.82 0 6.73 5.4 2.69 13.32l8.02 6.23C12.6 13.13 17.88 9.5 24 9.5z"/>
    <path fill="#34A853" d="M46.1 24.5c0-1.64-.15-3.22-.43-4.74H24v9.01h12.42c-.54 2.9-2.18 5.36-4.66 7.01l7.19 5.6C43.98 37.13 46.1 31.3 46.1 24.5z"/>
    <path fill="#FBBC05" d="M10.71 28.09c-1.09-3.25-1.09-6.74 0-9.99l-8.02-6.23C.7 16.6 0 20.21 0 24c0 3.79.7 7.4 2.69 10.13l8.02-6.04z"/>
    <path fill="#EA4335" d="M24 48c6.6 0 12.15-2.18 16.19-5.95l-7.19-5.6c-2.01 1.35-4.59 2.15-9 2.15-6.12 0-11.4-3.63-13.29-8.86l-8.02 6.04C6.73 42.6 14.82 48 24 48z"/>
    <path fill="none" d="M0 0h48v48H0z"/>
  </g>
</svg> 